<svg xmlns="http://www.w3.org/2000/svg" xmlns:xlink="http://www.w3.org/1999/xlink" preserveAspectRatio="xMidYMid" width="111" height="112" viewBox="0 0 111 112">
  <defs>
    <style>
      .cls-1 {
        fill: #FFF;
        fill-rule: evenodd;
      }
    </style>
  </defs>
  <path d="M64.315,53.313 L12.306,1.304 C11.561,0.561 10.705,0.188 9.739,0.188 C8.771,0.188 7.915,0.561 7.172,1.304 L1.591,6.885 C0.847,7.629 0.475,8.486 0.475,9.452 C0.475,10.419 0.847,11.276 1.591,12.019 L45.453,55.880 L1.591,99.742 C0.847,100.486 0.475,101.343 0.475,102.309 C0.475,103.277 0.847,104.133 1.591,104.876 L7.172,110.456 C7.915,111.201 8.771,111.572 9.739,111.572 C10.705,111.572 11.561,111.201 12.306,110.456 L64.315,58.447 C65.057,57.704 65.431,56.848 65.431,55.880 C65.431,54.914 65.057,54.058 64.315,53.313 L64.315,53.313 Z" class="cls-1"/>
  <path d="M109.886,6.885 L104.306,1.304 C103.561,0.561 102.705,0.188 101.739,0.188 C100.771,0.188 99.915,0.561 99.172,1.304 L47.163,53.313 C46.418,54.058 46.047,54.914 46.047,55.880 C46.047,56.848 46.418,57.704 47.163,58.447 L99.172,110.456 C99.915,111.201 100.771,111.572 101.739,111.572 C102.705,111.572 103.561,111.201 104.306,110.456 L109.886,104.876 C110.629,104.133 111.002,103.277 111.002,102.309 C111.002,101.343 110.629,100.486 109.886,99.742 L66.024,55.880 L109.886,12.019 C110.629,11.276 111.002,10.419 111.002,9.452 C111.002,8.486 110.629,7.629 109.886,6.885 L109.886,6.885 Z" class="cls-1"/>
</svg>
