<svg enable-background="new 0 0 717 717" viewBox="0 0 717 717" xmlns="http://www.w3.org/2000/svg"><g clip-rule="evenodd" fill-rule="evenodd"><g><path d="m0 583.7h715v-583.7h-717z" fill="#64b1e5"/><g><path d="m717 .6-2.2 716.9h-717l2.2-180.1 22.1-26.1c-.1-2.1 1.4-4.1 3.6-4.3l53.4-5.3c3.7-.4 5-5.1 2-7.3l-19.6-14.4c-2.9-2.1-1.8-6.7 1.8-7.3l45.4-6.8c3.5-.5 4.7-5 1.9-7.2l-23.8-19.1c-1.6-1.3-2-3.6-.9-5.3l17.4-27.2c.6-.9 1.4-1.5 2.5-1.8l21.5-5.1c1.1-.3 2-1 2.6-1.9l52.2-91.2c.2-.4.4-.9.5-1.4l17.7-114.8c.3-2 2-3.4 4-3.4h34.3c1.4 0 2.6.7 3.4 1.8l26.4 39.6c.7 1.1.9 2.4.5 3.6l-9.2 26.1c-.2.5-.4.9-.7 1.3l-14.8 17.5c-.6.7-1 1.7-1 2.6v21.7c0 1.4.8 2.8 2 3.5l11.6 6.8c1.6.9 3.6.7 4.9-.6l51.4-51.2c.6-.6 1-1.3 1.1-2.1l9.5-46.9c.5-2.4-1.3-4.7-3.7-4.8l-34-1.9c-2.6-.1-4.4-2.8-3.6-5.3l11-34.3c.1-.4.2-.8.2-1.2v-31.4c0-1.4.7-2.7 2-3.5l54.1-32.4c.5-.3 1.1-.5 1.7-.6l63.3-6.3c.2 0 .4 0 .5-.1l44-10.4 105.8-19.4 59.4-35.1z" fill="#f0f1f2"/><g fill="#fff"><path d="m481.1 109.2c-.6-.4-1.1-.9-1.4-1.6l-13-27.1c-.8-1.7-2.7-2.6-4.6-2.2l-47.1 11.4c-.2 0-.4.1-.5.1l-63.3 6.3c-.6.1-1.2.2-1.7.6l-54.1 32.3c-1.2.7-2 2.1-2 3.5v31.4c0 .4-.1.8-.2 1.2l-11 34.3c-.8 2.5 1 5.1 3.6 5.3l34 1.9c2.5.1 4.2 2.4 3.7 4.8l-9.5 46.9c-.2.8-.5 1.5-1.1 2.1l-51.4 51.2c-1.3 1.3-3.3 1.6-4.9.6l-11.6-6.8c-1.2-.7-2-2.1-2-3.5v-21.7c0-1 .3-1.9 1-2.6l14.8-17.5c.3-.4.6-.8.7-1.3l9.2-26.1c.4-1.2.3-2.5-.5-3.6l-26.4-39.6c-.8-1.1-2-1.8-3.4-1.8h-34.3c-2 0-3.7 1.5-4 3.4l-17.7 114.8c-.1.5-.2 1-.5 1.4l-52.2 91.2c-.6 1-1.5 1.7-2.6 1.9l-21.5 5.1c-1 .2-1.9.9-2.5 1.8l-17.4 27.2c-1.1 1.7-.7 4.1.9 5.3l23.8 19.1c2.8 2.2 1.6 6.6-1.9 7.2l-45.4 6.8c-3.6.5-4.7 5.2-1.8 7.3l19.7 14.3c3 2.2 1.7 6.9-2 7.3l-53.3 5.2c-2.5.2-4.1 2.6-3.5 5l7.5 30.1c.5 2.1 2.6 3.4 4.7 3l33-6.6c.6-.1 1.2-.1 1.7 0l32.9 7.8c1.4.3 2.8-.1 3.8-1l33.9-33.2c.8-.8 1.9-1.2 3-1.2l21.4.7c1.5 0 2.9-.7 3.6-2l10.6-18.1c1-1.7 3.1-2.4 4.9-1.7l29.4 10.9c1.1.4 2.3.3 3.4-.2l21.5-11.7c1.8-1 4.1-.5 5.3 1.2l25.9 37.5c.5.7 1.1 1.2 1.9 1.5l57.7 21.4c2 .8 3.1 3 2.4 5.1l-22.2 68.1c-.5 1.5 0 3.2 1.2 4.3l15.3 13.1c.7.6 1.7 1 2.7 1h36.5c2 0 3.7-1.5 4-3.4l5.5-36.3c.2-1.6-.5-3.3-2-4.1l-13.5-7.9c-1.8-1.1-2.5-3.4-1.6-5.3l5.3-10.7c.3-.7.9-1.3 1.5-1.7l19.4-11.9c1.1-.7 1.8-1.8 1.9-3l1-9c.2-1.8-1.2-3.4-3-3.4h-4.4c-2.3 0-3.7-2.4-2.7-4.4l13.3-25.9c.3-.5.4-1.1.4-1.8l.7-35.8c0-1-.4-2-1.1-2.8l-29.8-32.8c-.6-.7-1-1.6-1.1-2.6l-.7-20.4c0-1.3.5-2.5 1.6-3.3l14.2-11c1.1-.8 2.5-1.1 3.8-.6l36.6 12.4c.8.3 1.7.3 2.5 0l33.3-10.4c.8-.2 1.5-.7 2-1.4l12.2-15.7c1.1-1.4 1.1-3.4 0-4.9l-10.6-14.2c-1.3-1.8-1-4.3.9-5.7l40.4-29.7c1.2-.9 1.8-2.4 1.6-3.9l-5.6-37.2c-.2-1.6-1.4-2.9-3-3.3l-33.6-8.2c-1.8-.4-3.1-2.1-3.1-3.9v-24.7c0-2.2 1.8-4 4-4h40.9c2.2 0 4-1.7 4-3.9l1.4-40c0-.6.2-1.1.4-1.6l13.6-28.8c.3-.5.4-1.1.4-1.7v-38.5c0-1.3-.7-2.6-1.8-3.3z"/><path d="m203 171.6c.2 1 1.2 1.5 2.1 1l16.2-8.7c.6-.3.8-.9.7-1.5l-3.3-16.9c-.1-.4 0-.9.4-1.2l19.9-21.5c.2-.3.6-.4.9-.5l8.4-.8c.5 0 .9-.3 1.1-.8l1.4-2.8c.5-.9-.2-2.1-1.3-2.1h-9.1c-.4 0-.8.2-1.1.5l-37.9 41.9c-.3.3-.4.8-.4 1.2z"/><path d="m255.4 106.1c3.7-.1 8.8-.2 8.8.1 0 .4 27.6-12.3 35.1-15.8.9-.4 1.1-1.6.4-2.3l-2.6-2.6c-.4-.4-.9-.5-1.4-.4l-35.1 10.2c-.3.1-.6.3-.8.6-.9 1.3-3.4 5.2-5.5 7.7-.8 1.2-.1 2.6 1.1 2.5"/><path d="m307.6 85.9 6.4 3.9c.3.2.7.3 1.1.2l31-8.1c1-.3 1.4-1.4.8-2.2l-1.1-1.6c-.3-.4-.7-.6-1.2-.6l-32.4 1.1c-.4 0-.8.2-1 .5l-3.9 4.7c-.6.6-.5 1.6.3 2.1"/><path d="m372.6 78 23.1-6.9c.3-.1.6-.3.8-.5.7-1-.2-2.5-1.4-2.2l-23.1 4c-.7.1-1.2.7-1.2 1.4v2.9c0 .9.9 1.6 1.8 1.3"/></g></g></g><g fill="#1e2328"><g transform="translate(203 250)"><path d="m20.6 35.4c-2.3 2.3-6.1 2.3-8.5 0-2.2-2.2-2.3-5.6-.5-7.9l-6.2-6.2c-.3-.3-.3-.8 0-1.1s.8-.3 1.1 0l6.2 6.2c2.4-1.8 5.8-1.7 7.9.5 2.4 2.3 2.4 6.1 0 8.5" opacity=".08"/><path d="m6.8 11.9v8.8c0 .4-.3.8-.8.8s-.8-.3-.8-.8v-8.8c-2.9-.3-5.2-2.8-5.2-5.9 0-3.3 2.7-6 6-6s6 2.7 6 6c0 3.1-2.3 5.6-5.2 5.9"/></g><g transform="translate(218 283.5)"><path d="m20.6 35.4c-2.3 2.3-6.1 2.3-8.5 0-2.2-2.2-2.3-5.6-.5-7.9l-6.2-6.2c-.3-.3-.3-.8 0-1.1s.8-.3 1.1 0l6.2 6.2c2.4-1.8 5.8-1.7 7.9.5 2.4 2.3 2.4 6.1 0 8.5" opacity=".08"/><path d="m6.8 11.9v8.8c0 .4-.3.8-.8.8s-.8-.3-.8-.8v-8.8c-2.9-.3-5.2-2.8-5.2-5.9 0-3.3 2.7-6 6-6s6 2.7 6 6c0 3.1-2.3 5.6-5.2 5.9"/></g><g transform="translate(344 154)"><path d="m20.6 35.4c-2.3 2.3-6.1 2.3-8.5 0-2.2-2.2-2.3-5.6-.5-7.9l-6.2-6.2c-.3-.3-.3-.8 0-1.1s.8-.3 1.1 0l6.2 6.2c2.4-1.8 5.8-1.7 7.9.5 2.4 2.3 2.4 6.1 0 8.5" opacity=".08"/><path d="m6.8 11.9v8.8c0 .4-.3.8-.8.8s-.8-.3-.8-.8v-8.8c-2.9-.3-5.2-2.8-5.2-5.9 0-3.3 2.7-6 6-6s6 2.7 6 6c0 3.1-2.3 5.6-5.2 5.9"/></g><g transform="translate(379 103)"><path d="m20.6 35.4c-2.3 2.3-6.1 2.3-8.5 0-2.2-2.2-2.3-5.6-.5-7.9l-6.2-6.2c-.3-.3-.3-.8 0-1.1s.8-.3 1.1 0l6.2 6.2c2.4-1.8 5.8-1.7 7.9.5 2.4 2.3 2.4 6.1 0 8.5" opacity=".08"/><path d="m6.8 11.9v8.8c0 .4-.3.8-.8.8s-.8-.3-.8-.8v-8.8c-2.9-.3-5.2-2.8-5.2-5.9 0-3.3 2.7-6 6-6s6 2.7 6 6c0 3.1-2.3 5.6-5.2 5.9"/></g><g transform="translate(429.75 303.5)"><path d="m20.6 35.4c-2.3 2.3-6.1 2.3-8.5 0-2.2-2.2-2.3-5.6-.5-7.9l-6.2-6.2c-.3-.3-.3-.8 0-1.1s.8-.3 1.1 0l6.2 6.2c2.4-1.8 5.8-1.7 7.9.5 2.4 2.3 2.4 6.1 0 8.5" opacity=".08"/><path d="m6.8 11.9v8.8c0 .4-.3.8-.8.8s-.8-.3-.8-.8v-8.8c-2.9-.3-5.2-2.8-5.2-5.9 0-3.3 2.7-6 6-6s6 2.7 6 6c0 3.1-2.3 5.6-5.2 5.9"/></g><g transform="translate(459.75 276.5)"><path d="m20.6 35.4c-2.3 2.3-6.1 2.3-8.5 0-2.2-2.2-2.3-5.6-.5-7.9l-6.2-6.2c-.3-.3-.3-.8 0-1.1s.8-.3 1.1 0l6.2 6.2c2.4-1.8 5.8-1.7 7.9.5 2.4 2.3 2.4 6.1 0 8.5" opacity=".08"/><path d="m6.8 11.9v8.8c0 .4-.3.8-.8.8s-.8-.3-.8-.8v-8.8c-2.9-.3-5.2-2.8-5.2-5.9 0-3.3 2.7-6 6-6s6 2.7 6 6c0 3.1-2.3 5.6-5.2 5.9"/></g><g transform="translate(454.75 201.25)"><path d="m20.6 35.4c-2.3 2.3-6.1 2.3-8.5 0-2.2-2.2-2.3-5.6-.5-7.9l-6.2-6.2c-.3-.3-.3-.8 0-1.1s.8-.3 1.1 0l6.2 6.2c2.4-1.8 5.8-1.7 7.9.5 2.4 2.3 2.4 6.1 0 8.5" opacity=".08"/><path d="m6.8 11.9v8.8c0 .4-.3.8-.8.8s-.8-.3-.8-.8v-8.8c-2.9-.3-5.2-2.8-5.2-5.9 0-3.3 2.7-6 6-6s6 2.7 6 6c0 3.1-2.3 5.6-5.2 5.9"/></g><g transform="translate(340.5 237.75)"><path d="m20.6 35.4c-2.3 2.3-6.1 2.3-8.5 0-2.2-2.2-2.3-5.6-.5-7.9l-6.2-6.2c-.3-.3-.3-.8 0-1.1s.8-.3 1.1 0l6.2 6.2c2.4-1.8 5.8-1.7 7.9.5 2.4 2.3 2.4 6.1 0 8.5" opacity=".08"/><path d="m6.8 11.9v8.8c0 .4-.3.8-.8.8s-.8-.3-.8-.8v-8.8c-2.9-.3-5.2-2.8-5.2-5.9 0-3.3 2.7-6 6-6s6 2.7 6 6c0 3.1-2.3 5.6-5.2 5.9"/></g><g transform="translate(320.5 262.75)"><path d="m20.6 35.4c-2.3 2.3-6.1 2.3-8.5 0-2.2-2.2-2.3-5.6-.5-7.9l-6.2-6.2c-.3-.3-.3-.8 0-1.1s.8-.3 1.1 0l6.2 6.2c2.4-1.8 5.8-1.7 7.9.5 2.4 2.3 2.4 6.1 0 8.5" opacity=".08"/><path d="m6.8 11.9v8.8c0 .4-.3.8-.8.8s-.8-.3-.8-.8v-8.8c-2.9-.3-5.2-2.8-5.2-5.9 0-3.3 2.7-6 6-6s6 2.7 6 6c0 3.1-2.3 5.6-5.2 5.9"/></g><g transform="translate(330.5 337.25)"><path d="m20.6 35.4c-2.3 2.3-6.1 2.3-8.5 0-2.2-2.2-2.3-5.6-.5-7.9l-6.2-6.2c-.3-.3-.3-.8 0-1.1s.8-.3 1.1 0l6.2 6.2c2.4-1.8 5.8-1.7 7.9.5 2.4 2.3 2.4 6.1 0 8.5" opacity=".08"/><path d="m6.8 11.9v8.8c0 .4-.3.8-.8.8s-.8-.3-.8-.8v-8.8c-2.9-.3-5.2-2.8-5.2-5.9 0-3.3 2.7-6 6-6s6 2.7 6 6c0 3.1-2.3 5.6-5.2 5.9"/></g><g transform="translate(277.25 367.75)"><path d="m20.6 35.4c-2.3 2.3-6.1 2.3-8.5 0-2.2-2.2-2.3-5.6-.5-7.9l-6.2-6.2c-.3-.3-.3-.8 0-1.1s.8-.3 1.1 0l6.2 6.2c2.4-1.8 5.8-1.7 7.9.5 2.4 2.3 2.4 6.1 0 8.5" opacity=".08"/><path d="m6.8 11.9v8.8c0 .4-.3.8-.8.8s-.8-.3-.8-.8v-8.8c-2.9-.3-5.2-2.8-5.2-5.9 0-3.3 2.7-6 6-6s6 2.7 6 6c0 3.1-2.3 5.6-5.2 5.9"/></g><g transform="translate(198.5 352)"><path d="m20.6 35.4c-2.3 2.3-6.1 2.3-8.5 0-2.2-2.2-2.3-5.6-.5-7.9l-6.2-6.2c-.3-.3-.3-.8 0-1.1s.8-.3 1.1 0l6.2 6.2c2.4-1.8 5.8-1.7 7.9.5 2.4 2.3 2.4 6.1 0 8.5" opacity=".08"/><path d="m6.8 11.9v8.8c0 .4-.3.8-.8.8s-.8-.3-.8-.8v-8.8c-2.9-.3-5.2-2.8-5.2-5.9 0-3.3 2.7-6 6-6s6 2.7 6 6c0 3.1-2.3 5.6-5.2 5.9"/></g><g transform="translate(196.5 295)"><path d="m20.6 35.4c-2.3 2.3-6.1 2.3-8.5 0-2.2-2.2-2.3-5.6-.5-7.9l-6.2-6.2c-.3-.3-.3-.8 0-1.1s.8-.3 1.1 0l6.2 6.2c2.4-1.8 5.8-1.7 7.9.5 2.4 2.3 2.4 6.1 0 8.5" opacity=".08"/><path d="m6.8 11.9v8.8c0 .4-.3.8-.8.8s-.8-.3-.8-.8v-8.8c-2.9-.3-5.2-2.8-5.2-5.9 0-3.3 2.7-6 6-6s6 2.7 6 6c0 3.1-2.3 5.6-5.2 5.9"/></g><g transform="translate(148.5 352)"><path d="m20.6 35.4c-2.3 2.3-6.1 2.3-8.5 0-2.2-2.2-2.3-5.6-.5-7.9l-6.2-6.2c-.3-.3-.3-.8 0-1.1s.8-.3 1.1 0l6.2 6.2c2.4-1.8 5.8-1.7 7.9.5 2.4 2.3 2.4 6.1 0 8.5" opacity=".08"/><path d="m6.8 11.9v8.8c0 .4-.3.8-.8.8s-.8-.3-.8-.8v-8.8c-2.9-.3-5.2-2.8-5.2-5.9 0-3.3 2.7-6 6-6s6 2.7 6 6c0 3.1-2.3 5.6-5.2 5.9"/></g><g transform="translate(131 401.5)"><path d="m20.6 35.4c-2.3 2.3-6.1 2.3-8.5 0-2.2-2.2-2.3-5.6-.5-7.9l-6.2-6.2c-.3-.3-.3-.8 0-1.1s.8-.3 1.1 0l6.2 6.2c2.4-1.8 5.8-1.7 7.9.5 2.4 2.3 2.4 6.1 0 8.5" opacity=".08"/><path d="m6.8 11.9v8.8c0 .4-.3.8-.8.8s-.8-.3-.8-.8v-8.8c-2.9-.3-5.2-2.8-5.2-5.9 0-3.3 2.7-6 6-6s6 2.7 6 6c0 3.1-2.3 5.6-5.2 5.9"/></g><g transform="translate(148 478)"><path d="m20.6 35.4c-2.3 2.3-6.1 2.3-8.5 0-2.2-2.2-2.3-5.6-.5-7.9l-6.2-6.2c-.3-.3-.3-.8 0-1.1s.8-.3 1.1 0l6.2 6.2c2.4-1.8 5.8-1.7 7.9.5 2.4 2.3 2.4 6.1 0 8.5" opacity=".08"/><path d="m6.8 11.9v8.8c0 .4-.3.8-.8.8s-.8-.3-.8-.8v-8.8c-2.9-.3-5.2-2.8-5.2-5.9 0-3.3 2.7-6 6-6s6 2.7 6 6c0 3.1-2.3 5.6-5.2 5.9"/></g><g transform="translate(266 452)"><path d="m20.6 35.4c-2.3 2.3-6.1 2.3-8.5 0-2.2-2.2-2.3-5.6-.5-7.9l-6.2-6.2c-.3-.3-.3-.8 0-1.1s.8-.3 1.1 0l6.2 6.2c2.4-1.8 5.8-1.7 7.9.5 2.4 2.3 2.4 6.1 0 8.5" opacity=".08"/><path d="m6.8 11.9v8.8c0 .4-.3.8-.8.8s-.8-.3-.8-.8v-8.8c-2.9-.3-5.2-2.8-5.2-5.9 0-3.3 2.7-6 6-6s6 2.7 6 6c0 3.1-2.3 5.6-5.2 5.9"/></g><g transform="translate(349 606)"><path d="m20.6 35.4c-2.3 2.3-6.1 2.3-8.5 0-2.2-2.2-2.3-5.6-.5-7.9l-6.2-6.2c-.3-.3-.3-.8 0-1.1s.8-.3 1.1 0l6.2 6.2c2.4-1.8 5.8-1.7 7.9.5 2.4 2.3 2.4 6.1 0 8.5" opacity=".08"/><path d="m6.8 11.9v8.8c0 .4-.3.8-.8.8s-.8-.3-.8-.8v-8.8c-2.9-.3-5.2-2.8-5.2-5.9 0-3.3 2.7-6 6-6s6 2.7 6 6c0 3.1-2.3 5.6-5.2 5.9"/></g><g transform="translate(364 502)"><path d="m20.6 35.4c-2.3 2.3-6.1 2.3-8.5 0-2.2-2.2-2.3-5.6-.5-7.9l-6.2-6.2c-.3-.3-.3-.8 0-1.1s.8-.3 1.1 0l6.2 6.2c2.4-1.8 5.8-1.7 7.9.5 2.4 2.3 2.4 6.1 0 8.5" opacity=".08"/><path d="m6.8 11.9v8.8c0 .4-.3.8-.8.8s-.8-.3-.8-.8v-8.8c-2.9-.3-5.2-2.8-5.2-5.9 0-3.3 2.7-6 6-6s6 2.7 6 6c0 3.1-2.3 5.6-5.2 5.9"/></g><g transform="translate(248 433)"><path d="m20.6 35.4c-2.3 2.3-6.1 2.3-8.5 0-2.2-2.2-2.3-5.6-.5-7.9l-6.2-6.2c-.3-.3-.3-.8 0-1.1s.8-.3 1.1 0l6.2 6.2c2.4-1.8 5.8-1.7 7.9.5 2.4 2.3 2.4 6.1 0 8.5" opacity=".08"/><path d="m6.8 11.9v8.8c0 .4-.3.8-.8.8s-.8-.3-.8-.8v-8.8c-2.9-.3-5.2-2.8-5.2-5.9 0-3.3 2.7-6 6-6s6 2.7 6 6c0 3.1-2.3 5.6-5.2 5.9"/></g></g></g></svg>