<svg height="717" viewBox="0 0 717 717" width="717" xmlns="http://www.w3.org/2000/svg"><g fill="none" fill-rule="evenodd"><path d="m0 0h717v717h-717z" fill="#f0f1f2"/><path d="m73.304 120.284c.941 1.413 1.164 3.185.601 4.787l-18.616 53.004c-.219.624-.55 1.202-.977 1.705l-30.013 35.387c-.828.975-1.283 2.215-1.283 3.494v45.144c0 1.914 1.011 3.683 2.659 4.655l23.984 14.139c3.121 1.84 7.091 1.34 9.658-1.217l101.64-101.209c.755-.753 1.271-1.712 1.483-2.757l19.393-95.838c.653-3.23-1.712-6.286-5.002-6.466l-73.08-3.987c-3.532-.193-5.93-3.672-4.852-7.041l22.975-64.084h-121.874v37.792h15.416c1.807 0 3.494.902 4.496 2.406z" fill="#64b1e5"/><path d="m400.4597 141.8608c-1.691-.937-3.749-.903-5.405.095-10.089 6.082-45.336 27.228-45.713 26.099-.375-1.126-19.941-20.481-25.695-26.158-1.01-.998-2.371-1.553-3.791-1.553h-21.597c-2.728 0-5.028-2.033-5.362-4.741l-6.779-54.911c-.389-3.157-3.41-5.296-6.518-4.615l-66.44 14.553c-3.81.835-5.508 5.309-3.21 8.46l40.563 55.639c2.128 2.919.847 7.064-2.556 8.274l-32.875 11.696c-3.159 1.124-4.543 4.824-2.895 7.745l24.624 43.65c.792 1.406 2.17 2.383 3.757 2.665l38.006 6.775c2.327.414 4.115 2.294 4.411 4.639l10.051 79.192c.271 2.134 1.764 3.898 3.828 4.502 19.327 5.642 116.421 34.001 159.242 46.753l60.462-44.39c2.385-1.749 3.602-4.678 3.161-7.603l-11.295-74.826c-.328-2.168-1.932-3.923-4.063-4.443l-69.574-16.966c-2.419-.59-4.122-2.759-4.122-5.249v-53.12c0-1.766.86-3.321 2.171-4.307l-2.171-1.096z" fill="#fff"/><g fill="#1e2328"><g transform="translate(235 93)"><path d="m20.646225 35.357925c-2.34375 2.343-6.14175 2.343-8.4855 0-2.163-2.163-2.32425-5.56425-.49425-7.9185l-6.1965-6.1965c-.29325-.29325-.29325-.768 0-1.0605.2925-.29325.76725-.29325 1.0605 0l6.1965 6.1965c2.35425-1.83075 5.7555-1.6695 7.91925.49425 2.343 2.343 2.343 6.14175 0 8.48475" opacity=".08"/><path d="m6.75 11.94825v8.7645c0 .414-.33525.75-.75.75s-.75-.336-.75-.75v-8.7645c-2.95875-.36975-5.25-2.88975-5.25-5.94825 0-3.31425 2.6865-6 6-6 3.31425 0 6 2.68575 6 6 0 3.0585-2.29125 5.5785-5.25 5.94825"/></g><g transform="translate(280 142)"><path d="m20.646225 35.357925c-2.34375 2.343-6.14175 2.343-8.4855 0-2.163-2.163-2.32425-5.56425-.49425-7.9185l-6.1965-6.1965c-.29325-.29325-.29325-.768 0-1.0605.2925-.29325.76725-.29325 1.0605 0l6.1965 6.1965c2.35425-1.83075 5.7555-1.6695 7.91925.49425 2.343 2.343 2.343 6.14175 0 8.48475" opacity=".08"/><path d="m6.75 11.94825v8.7645c0 .414-.33525.75-.75.75s-.75-.336-.75-.75v-8.7645c-2.95875-.36975-5.25-2.88975-5.25-5.94825 0-3.31425 2.6865-6 6-6 3.31425 0 6 2.68575 6 6 0 3.0585-2.29125 5.5785-5.25 5.94825"/></g><g transform="translate(440.75 282.5)"><path d="m20.646225 35.357925c-2.34375 2.343-6.14175 2.343-8.4855 0-2.163-2.163-2.32425-5.56425-.49425-7.9185l-6.1965-6.1965c-.29325-.29325-.29325-.768 0-1.0605.2925-.29325.76725-.29325 1.0605 0l6.1965 6.1965c2.35425-1.83075 5.7555-1.6695 7.91925.49425 2.343 2.343 2.343 6.14175 0 8.48475" opacity=".08"/><path d="m6.75 11.94825v8.7645c0 .414-.33525.75-.75.75s-.75-.336-.75-.75v-8.7645c-2.95875-.36975-5.25-2.88975-5.25-5.94825 0-3.31425 2.6865-6 6-6 3.31425 0 6 2.68575 6 6 0 3.0585-2.29125 5.5785-5.25 5.94825"/></g><g transform="translate(470.75 295.5)"><path d="m20.646225 35.357925c-2.34375 2.343-6.14175 2.343-8.4855 0-2.163-2.163-2.32425-5.56425-.49425-7.9185l-6.1965-6.1965c-.29325-.29325-.29325-.768 0-1.0605.2925-.29325.76725-.29325 1.0605 0l6.1965 6.1965c2.35425-1.83075 5.7555-1.6695 7.91925.49425 2.343 2.343 2.343 6.14175 0 8.48475" opacity=".08"/><path d="m6.75 11.94825v8.7645c0 .414-.33525.75-.75.75s-.75-.336-.75-.75v-8.7645c-2.95875-.36975-5.25-2.88975-5.25-5.94825 0-3.31425 2.6865-6 6-6 3.31425 0 6 2.68575 6 6 0 3.0585-2.29125 5.5785-5.25 5.94825"/></g><g transform="translate(465.75 230.25)"><path d="m20.646225 35.357925c-2.34375 2.343-6.14175 2.343-8.4855 0-2.163-2.163-2.32425-5.56425-.49425-7.9185l-6.1965-6.1965c-.29325-.29325-.29325-.768 0-1.0605.2925-.29325.76725-.29325 1.0605 0l6.1965 6.1965c2.35425-1.83075 5.7555-1.6695 7.91925.49425 2.343 2.343 2.343 6.14175 0 8.48475" opacity=".08"/><path d="m6.75 11.94825v8.7645c0 .414-.33525.75-.75.75s-.75-.336-.75-.75v-8.7645c-2.95875-.36975-5.25-2.88975-5.25-5.94825 0-3.31425 2.6865-6 6-6 3.31425 0 6 2.68575 6 6 0 3.0585-2.29125 5.5785-5.25 5.94825"/></g><g transform="translate(321.5 256.75)"><path d="m20.646225 35.357925c-2.34375 2.343-6.14175 2.343-8.4855 0-2.163-2.163-2.32425-5.56425-.49425-7.9185l-6.1965-6.1965c-.29325-.29325-.29325-.768 0-1.0605.2925-.29325.76725-.29325 1.0605 0l6.1965 6.1965c2.35425-1.83075 5.7555-1.6695 7.91925.49425 2.343 2.343 2.343 6.14175 0 8.48475" opacity=".08"/><path d="m6.75 11.94825v8.7645c0 .414-.33525.75-.75.75s-.75-.336-.75-.75v-8.7645c-2.95875-.36975-5.25-2.88975-5.25-5.94825 0-3.31425 2.6865-6 6-6 3.31425 0 6 2.68575 6 6 0 3.0585-2.29125 5.5785-5.25 5.94825"/></g><g transform="translate(311.5 301.75)"><path d="m20.646225 35.357925c-2.34375 2.343-6.14175 2.343-8.4855 0-2.163-2.163-2.32425-5.56425-.49425-7.9185l-6.1965-6.1965c-.29325-.29325-.29325-.768 0-1.0605.2925-.29325.76725-.29325 1.0605 0l6.1965 6.1965c2.35425-1.83075 5.7555-1.6695 7.91925.49425 2.343 2.343 2.343 6.14175 0 8.48475" opacity=".08"/><path d="m6.75 11.94825v8.7645c0 .414-.33525.75-.75.75s-.75-.336-.75-.75v-8.7645c-2.95875-.36975-5.25-2.88975-5.25-5.94825 0-3.31425 2.6865-6 6-6 3.31425 0 6 2.68575 6 6 0 3.0585-2.29125 5.5785-5.25 5.94825"/></g></g></g></svg>